<svg xmlns="http://www.w3.org/2000/svg" id="Capa_2" data-name="Capa 2" viewBox="0 0 82.03 69.94"><g id="Capa_1-2" data-name="Capa 1"><path d="M81.74,50.68c-.82-2.23-3.29-3.38-5.52-2.55l-35.18,12.9L5.87,48.13c-.06-.01-.1-.03-.16-.06-2.24-.77-4.7.41-5.48,2.67-.77,2.24.41,4.7,2.67,5.46l36.65,13.47c.96.35,2.01.35,2.97,0l36.65-13.47c2.24-.81,3.38-3.29,2.57-5.52ZM81.74,33.47c-.82-2.23-3.29-3.38-5.52-2.55l-35.18,12.91L5.87,30.92c-.06-.01-.1-.03-.16-.04-2.24-.78-4.7.41-5.48,2.65-.77,2.24.41,4.7,2.67,5.48l36.65,13.45c.96.35,2.01.35,2.97,0l36.65-13.45c2.24-.82,3.38-3.29,2.57-5.53ZM79.18,13.71L42.53.26c-.96-.34-2.01-.34-2.98,0L2.9,13.71C1.2,14.33.08,15.95.09,17.75c-.01,1.8,1.11,3.42,2.81,4.04l36.65,13.45c.96.34,2.01.34,2.98,0l36.65-13.45c1.21-.43,2.14-1.38,2.58-2.57.81-2.24-.34-4.71-2.58-5.52ZM2.9,21.79l36.65,13.45c.96.34,2.01.34,2.98,0l36.65-13.45c1.21-.43,2.14-1.38,2.58-2.57.81-2.24-.34-4.71-2.58-5.52L42.53.26c-.96-.34-2.01-.34-2.98,0L2.9,13.71C1.2,14.33.08,15.95.09,17.75c-.01,1.8,1.11,3.42,2.81,4.04ZM76.22,30.92l-35.18,12.91L5.87,30.92c-.06-.01-.1-.03-.16-.04-2.24-.78-4.7.41-5.48,2.65-.77,2.24.41,4.7,2.67,5.48l36.65,13.45c.96.35,2.01.35,2.97,0l36.65-13.45c2.24-.82,3.38-3.29,2.57-5.53-.82-2.23-3.29-3.38-5.52-2.55ZM76.22,48.13l-35.18,12.9L5.87,48.13c-.06-.01-.1-.03-.16-.06-2.24-.77-4.7.41-5.48,2.67-.77,2.24.41,4.7,2.67,5.46l36.65,13.47c.96.35,2.01.35,2.97,0l36.65-13.47c2.24-.81,3.38-3.29,2.57-5.52-.82-2.23-3.29-3.38-5.52-2.55ZM2.9,21.79l36.65,13.45c.96.34,2.01.34,2.98,0l36.65-13.45c1.21-.43,2.14-1.38,2.58-2.57.81-2.24-.34-4.71-2.58-5.52L42.53.26c-.96-.34-2.01-.34-2.98,0L2.9,13.71C1.2,14.33.08,15.95.09,17.75c-.01,1.8,1.11,3.42,2.81,4.04ZM76.22,30.92l-35.18,12.91L5.87,30.92c-.06-.01-.1-.03-.16-.04-2.24-.78-4.7.41-5.48,2.65-.77,2.24.41,4.7,2.67,5.48l36.65,13.45c.96.35,2.01.35,2.97,0l36.65-13.45c2.24-.82,3.38-3.29,2.57-5.53-.82-2.23-3.29-3.38-5.52-2.55ZM76.22,48.13l-35.18,12.9L5.87,48.13c-.06-.01-.1-.03-.16-.06-2.24-.77-4.7.41-5.48,2.67-.77,2.24.41,4.7,2.67,5.46l36.65,13.47c.96.35,2.01.35,2.97,0l36.65-13.47c2.24-.81,3.38-3.29,2.57-5.52-.82-2.23-3.29-3.38-5.52-2.55Z"></path></g></svg>