<svg xmlns="http://www.w3.org/2000/svg" id="Capa_2" data-name="Capa 2" viewBox="0 0 72.07 72.07"><g id="Capa_1-2" data-name="Capa 1"><g id="Layer_2" data-name="Layer 2"><g id="Layer_1_copy_6" data-name="Layer 1 copy 6"><g id="_102" data-name=" 102"><circle cx="33.69" cy="33.69" r="10.41"></circle><path d="M36.03,0C16.13,0,0,16.13,0,36.03s16.13,36.03,36.03,36.03,36.03-16.13,36.03-36.03S55.93,0,36.03,0ZM54.04,52.41l-1.63,1.63c-.88.88-2.31.88-3.18,0h0s-6.66-6.66-6.66-6.66c-7.57,4.91-17.68,2.75-22.58-4.82-4.91-7.57-2.75-17.68,4.82-22.58,7.57-4.91,17.68-2.75,22.58,4.82,3.5,5.4,3.5,12.36,0,17.77l6.66,6.66c.88.88.88,2.31,0,3.18h0s0,0,0,0Z"></path></g></g></g></g></svg>