<svg xmlns="http://www.w3.org/2000/svg" id="Capa_2" data-name="Capa 2" viewBox="0 0 84.08 78.71"><g id="Capa_1-2" data-name="Capa 1"><g><path d="M10.96,30.64l-7.16,3.32c-1.6.74-2.82,2.07-3.4,3.72-.59,1.64-.55,3.44.23,5.05l9.27,19.91c1.13,2.39,3.52,3.79,5.98,3.79.94,0,1.88-.2,2.78-.63l6.61-3.09L10.96,30.6v.04Z"></path><path d="M73.07,45.62L54.26,5.26c-1.1-2.39-3.21-4.07-5.75-4.65-2.54-.59-5.16,0-7.35,1.84L15.85,27.05l15.02,33.72,4.19-.82,31.99-2.58c2.54-.47,4.69-2.07,5.91-4.42,1.21-2.35,1.25-5.05.16-7.39l-.04.08Z"></path><path d="M62.2,11.01c-.31,0-.66-.04-1.02-.16-1.53-.55-2.31-2.23-1.76-3.75l1.88-5.16c.55-1.53,2.23-2.31,3.75-1.76s2.31,2.23,1.76,3.75l-1.88,5.16c-.43,1.17-1.56,1.92-2.74,1.92Z"></path><path d="M74.29,23.45c-1.1,0-2.15-.63-2.66-1.68-.7-1.49-.04-3.21,1.41-3.91l4.97-2.31c1.49-.7,3.21-.04,3.91,1.41.7,1.49.04,3.21-1.41,3.91l-4.97,2.31c-.39.2-.82.27-1.25.27Z"></path><path d="M81.17,42.53c-.31,0-.66-.04-1.02-.16l-5.16-1.88c-1.53-.55-2.31-2.23-1.76-3.75.55-1.53,2.23-2.31,3.75-1.76l5.16,1.88c1.53.55,2.31,2.23,1.76,3.75-.43,1.17-1.56,1.92-2.78,1.92h.04Z"></path><path d="M41,63.46l-5.44.43-6.06,1.17-5.2,2.43,3.75,8.06c.94,1.99,2.93,3.17,5.01,3.17.78,0,1.56-.16,2.31-.51l5.32-2.46c2.74-1.29,3.95-4.58,2.66-7.31l-2.35-5.01v.04Z"></path></g></g></svg>