<svg xmlns="http://www.w3.org/2000/svg" id="Capa_2" data-name="Capa 2" viewBox="0 0 56.57 69.5"><defs><style> .cls-1 { fill-rule: evenodd; } </style></defs><g id="Capa_1-2" data-name="Capa 1"><g id="Icon"><path class="cls-1" d="M56.57,8.89v40.69c0,1.5-.59,2.94-1.66,4l-14.27,14.27c-1.06,1.06-2.5,1.66-4,1.66H8.89c-2.36,0-4.62-.94-6.29-2.6-1.66-1.67-2.6-3.93-2.6-6.29V8.89c0-2.36.94-4.62,2.6-6.29C4.27.94,6.53,0,8.89,0h38.79c2.36,0,4.62.94,6.29,2.6,1.66,1.67,2.6,3.93,2.6,6.29ZM36.37,63.85l14.55-14.55h-11.31c-1.78,0-3.23,1.45-3.23,3.23v11.31ZM15.36,17.78h25.86c1.34,0,2.42-1.09,2.42-2.42s-1.09-2.42-2.42-2.42H15.36c-1.34,0-2.42,1.09-2.42,2.42s1.09,2.42,2.42,2.42ZM15.36,56.57h11.31c1.34,0,2.42-1.09,2.42-2.42s-1.09-2.42-2.42-2.42h-11.31c-1.34,0-2.42,1.09-2.42,2.42s1.09,2.42,2.42,2.42ZM15.36,43.64h16.16c1.34,0,2.42-1.09,2.42-2.42s-1.09-2.42-2.42-2.42H15.36c-1.34,0-2.42,1.09-2.42,2.42s1.09,2.42,2.42,2.42ZM15.36,30.71h25.86c1.34,0,2.42-1.09,2.42-2.42s-1.09-2.42-2.42-2.42H15.36c-1.34,0-2.42,1.09-2.42,2.42s1.09,2.42,2.42,2.42Z"></path></g></g></svg>