<svg xmlns="http://www.w3.org/2000/svg" id="Capa_2" data-name="Capa 2" viewBox="0 0 63.26 67.1"><g id="Capa_1-2" data-name="Capa 1"><g id="Captions"><g><path d="M3.02,20.26h57.21c.7,0,1.36-.29,1.84-.79s.73-1.19.69-1.88l-.03-.66c-.41-6.65-5.97-11.86-12.65-11.86h-3.25v-2.53c0-1.4-1.13-2.53-2.53-2.53s-2.53,1.13-2.53,2.53v2.53h-20.26v-2.53c0-1.4-1.13-2.53-2.53-2.53s-2.53,1.13-2.53,2.53v2.53h-3.25C6.5,5.06.94,10.27.53,16.93l-.03.65c-.04.7.21,1.38.69,1.88.48.51,1.15.79,1.84.79Z"></path><path d="M63.16,27.79c-.03-1.37-1.16-2.47-2.53-2.47H2.63c-1.37,0-2.5,1.1-2.53,2.47-.23,9.07-.07,18.11.48,26.87.39,6.36,5.49,11.44,11.84,11.84,6.38.4,12.79.6,19.21.6s12.84-.2,19.21-.6c6.36-.39,11.44-5.49,11.84-11.84.54-8.76.71-17.8.48-26.87ZM44.29,40.51c-2.1,0-3.8-1.7-3.8-3.8s1.7-3.8,3.8-3.8,3.8,1.7,3.8,3.8-1.7,3.8-3.8,3.8ZM48.09,49.37c0,2.1-1.7,3.8-3.8,3.8s-3.8-1.7-3.8-3.8,1.7-3.8,3.8-3.8,3.8,1.7,3.8,3.8ZM18.97,45.57c2.1,0,3.8,1.7,3.8,3.8s-1.7,3.8-3.8,3.8-3.8-1.7-3.8-3.8,1.7-3.8,3.8-3.8ZM15.17,36.71c0-2.1,1.7-3.8,3.8-3.8s3.8,1.7,3.8,3.8-1.7,3.8-3.8,3.8-3.8-1.7-3.8-3.8ZM27.83,49.37c0-2.1,1.7-3.8,3.8-3.8s3.8,1.7,3.8,3.8-1.7,3.8-3.8,3.8-3.8-1.7-3.8-3.8ZM31.63,40.51c-2.1,0-3.8-1.7-3.8-3.8s1.7-3.8,3.8-3.8,3.8,1.7,3.8,3.8-1.7,3.8-3.8,3.8Z"></path></g></g></g></svg>