<svg xmlns="http://www.w3.org/2000/svg" id="Capa_2" data-name="Capa 2" viewBox="0 0 67.81 67.86"><g id="Capa_1-2" data-name="Capa 1"><g><path d="M2.01,29.82c-1.11,0-2.01.9-2.01,2.01v29.49c0,1.11.9,2.01,2.01,2.01h12.1V29.82H2.01Z"></path><path d="M67.81,40.9c0-2.55-1.37-4.78-3.41-6.01.78-1.13,1.24-2.5,1.24-3.97,0-3.86-3.14-7-7-7h-14.77c.45-2.05,1.07-5.13,1.5-8.35,1.12-8.39.36-13.04-2.41-14.64-1.73-1-3.59-1.2-5.24-.57-1.28.49-3,1.68-3.98,4.62l-3.88,10.17c-1.97,4.86-8,9.97-11.74,12.79v36.28c6.93,2.43,14.16,3.66,21.54,3.66h16.1c3.86,0,7-3.14,7-7,0-1.35-.39-2.61-1.05-3.69,2.33-1.14,3.94-3.53,3.94-6.3,0-1.47-.46-2.84-1.24-3.97,2.04-1.22,3.41-3.46,3.41-6.01Z"></path></g></g></svg>