<svg xmlns="http://www.w3.org/2000/svg" id="Capa_2" data-name="Capa 2" viewBox="0 0 57.56 77.23"><g id="Capa_1-2" data-name="Capa 1"><g><path d="M23.17,58.96c-.15-.68-.69-.87-.92-.93-.23-.05-.8-.11-1.23.44-1.7,2.18-4.52,2.84-7.01,1.64-2.49-1.2-3.73-3.81-3.09-6.5.16-.68-.24-1.09-.42-1.23-.18-.14-.67-.45-1.3-.14-.73.36-1.49.56-2.24.61l-4.64,15.26c-.5,1.63,0,3.34,1.29,4.46,1.29,1.11,3.05,1.35,4.6.62l4.1-1.94,2.19,3.83c.76,1.34,2.18,2.14,3.69,2.14.16,0,.32,0,.48-.03,1.69-.19,3.1-1.36,3.59-2.99l3.51-11.54c-1.3-.78-2.26-2.08-2.61-3.71Z"></path><path d="M47.04,52.38c-.18.14-.59.55-.42,1.23.64,2.69-.6,5.3-3.09,6.5-2.49,1.2-5.31.54-7.01-1.64-.43-.55-1-.49-1.23-.44-.23.05-.77.25-.92.93-.35,1.62-1.31,2.92-2.61,3.71l3.51,11.54c.49,1.63,1.9,2.8,3.59,2.99.16.02.32.03.48.03,1.51,0,2.93-.81,3.69-2.14l2.19-3.83,4.1,1.94c1.54.73,3.3.49,4.6-.62,1.29-1.12,1.79-2.82,1.29-4.45l-4.64-15.26c-.75-.05-1.51-.25-2.24-.61-.62-.31-1.11,0-1.29.14Z"></path><path d="M57.52,36.04c.07-.29.13-.99-.67-1.37-2.04-.95-3.3-2.94-3.3-5.19s1.26-4.24,3.3-5.19c.8-.37.73-1.08.67-1.37-.07-.29-.31-.95-1.2-.94-2.24.02-4.25-1.22-5.23-3.24s-.7-4.37.72-6.11c.56-.68.19-1.29,0-1.52s-.7-.72-1.49-.33c-2.02,1-4.36.75-6.12-.66-1.76-1.4-2.52-3.63-2-5.82.21-.86-.39-1.25-.65-1.38-.27-.13-.94-.35-1.48.35-1.38,1.77-3.6,2.56-5.8,2.06s-3.85-2.18-4.33-4.37c-.19-.86-.89-.96-1.19-.96s-1,.09-1.19.96c-.48,2.2-2.14,3.87-4.33,4.37-2.19.5-4.41-.29-5.8-2.06-.54-.7-1.22-.47-1.48-.35-.27.13-.86.52-.65,1.38.52,2.19-.24,4.42-2,5.82-1.76,1.4-4.1,1.65-6.12.66-.79-.39-1.3.1-1.49.33s-.55.84,0,1.52c1.42,1.74,1.7,4.08.72,6.11-.98,2.03-2.97,3.27-5.23,3.24-.88-.01-1.13.66-1.2.94-.07.29-.13.99.67,1.37,2.04.95,3.3,2.94,3.3,5.19s-1.26,4.24-3.3,5.19c-.8.37-.73,1.08-.67,1.37.07.29.32.95,1.2.94,2.25-.02,4.25,1.22,5.23,3.25.98,2.03.7,4.37-.72,6.11-.56.68-.19,1.29,0,1.52.18.23.7.72,1.49.33,2.02-1,4.36-.75,6.12.66,1.76,1.4,2.52,3.63,2,5.82-.21.86.39,1.25.65,1.38.27.13.94.35,1.48-.35,1.11-1.42,2.76-2.21,4.49-2.21.43,0,.87.05,1.3.15,2.19.5,3.85,2.18,4.33,4.37.19.86.89.96,1.19.96s1-.09,1.19-.96c.48-2.2,2.13-3.87,4.33-4.37,2.19-.5,4.41.29,5.8,2.06.54.7,1.22.47,1.48.35.27-.13.86-.52.65-1.38-.52-2.19.24-4.42,2-5.82,1.76-1.4,4.1-1.65,6.12-.66.79.39,1.3-.1,1.49-.33.18-.23.55-.84,0-1.52-1.42-1.74-1.7-4.08-.72-6.11.98-2.03,2.98-3.27,5.23-3.25.88.01,1.13-.66,1.2-.94ZM21.3,19.41c1.85,0,3.35,1.5,3.35,3.35s-1.5,3.35-3.35,3.35-3.35-1.5-3.35-3.35,1.5-3.35,3.35-3.35ZM20.4,41.81c-.44.44-1.02.66-1.6.66s-1.16-.22-1.6-.66c-.88-.88-.88-2.31,0-3.2l19.95-19.95c.88-.88,2.31-.88,3.2,0s.88,2.31,0,3.2l-19.95,19.95ZM36.25,41.06c-1.85,0-3.35-1.5-3.35-3.35s1.5-3.35,3.35-3.35,3.35,1.5,3.35,3.35-1.5,3.35-3.35,3.35Z"></path></g></g></svg>