<svg xmlns="http://www.w3.org/2000/svg" id="Capa_2" data-name="Capa 2" viewBox="0 0 65.42 68.18"><g id="Capa_1-2" data-name="Capa 1"><g><path d="M62.27,34.97c-.27-.56-.27-1.2,0-1.77l2.54-5.2c1.42-2.9.29-6.35-2.55-7.86l-5.11-2.71c-.55-.29-.93-.81-1.04-1.43l-1-5.7c-.56-3.18-3.49-5.31-6.69-4.86l-5.73.81c-.62.09-1.23-.11-1.68-.55l-4.16-4.03c-2.32-2.24-5.95-2.24-8.26,0l-4.16,4.03c-.45.43-1.06.63-1.68.55l-5.73-.81c-3.19-.45-6.13,1.68-6.69,4.86l-1,5.7c-.11.62-.49,1.14-1.04,1.43l-5.11,2.71c-2.85,1.51-3.97,4.96-2.55,7.86l2.54,5.2c.27.56.27,1.2,0,1.77l-2.54,5.2c-1.42,2.9-.29,6.35,2.55,7.86l5.11,2.71c.55.29.93.81,1.04,1.43l1,5.7c.51,2.89,2.99,4.92,5.83,4.92.28,0,.57-.02.85-.06l5.73-.81c.62-.09,1.23.11,1.68.55l4.16,4.03c1.16,1.12,2.65,1.68,4.13,1.68,1.49,0,2.97-.56,4.13-1.68l4.16-4.03c.45-.43,1.06-.63,1.68-.55l5.73.81c3.19.45,6.13-1.68,6.69-4.86l1-5.7c.11-.62.49-1.14,1.04-1.43l5.11-2.71c2.85-1.51,3.97-4.96,2.55-7.86l-2.54-5.2ZM24.85,16.39c3.98,0,7.21,3.23,7.21,7.21s-3.23,7.21-7.21,7.21-7.21-3.23-7.21-7.21,3.23-7.21,7.21-7.21ZM21.12,48.46c-.38.38-.89.58-1.39.58s-1.01-.19-1.39-.58c-.77-.77-.77-2.01,0-2.78l25.95-25.95c.77-.77,2.01-.77,2.78,0,.77.77.77,2.01,0,2.78l-25.95,25.95ZM40.57,51.79c-3.98,0-7.21-3.23-7.21-7.21s3.23-7.21,7.21-7.21,7.21,3.23,7.21,7.21-3.23,7.21-7.21,7.21Z"></path><path d="M39.99,41.48c-1.82,0-3.31,1.48-3.31,3.31s1.48,3.31,3.31,3.31,3.31-1.48,3.31-3.31-1.48-3.31-3.31-3.31Z"></path><path d="M24.11,20.31c-1.82,0-3.31,1.48-3.31,3.31s1.48,3.31,3.31,3.31,3.31-1.48,3.31-3.31c0-1.82-1.48-3.31-3.31-3.31Z"></path></g></g></svg>