<svg xmlns="http://www.w3.org/2000/svg" id="Capa_2" data-name="Capa 2" viewBox="0 0 66.21 66.26"><g id="Capa_1-2" data-name="Capa 1"><g><path d="M53.07,22.86c1.95,3.52,3.06,7.57,3.06,11.88,0,13.57-11.04,24.61-24.61,24.61S6.91,48.31,6.91,34.74,17.95,10.13,31.52,10.13c4.2,0,8.15,1.06,11.61,2.92l5.07-5.07c-4.95-3.1-10.69-4.76-16.68-4.76-8.42,0-16.34,3.28-22.29,9.23C3.28,18.41,0,26.32,0,34.74s3.28,16.34,9.23,22.29c5.95,5.95,13.87,9.23,22.29,9.23s16.34-3.28,22.29-9.23c5.95-5.95,9.23-13.87,9.23-22.29,0-6.09-1.72-11.92-4.92-16.93l-5.05,5.05Z"></path><path d="M33.93,28.92c-2.27-.93-4.98-.48-6.82,1.36-2.46,2.46-2.46,6.42,0,8.85,2.45,2.45,6.41,2.45,8.85,0,1.84-1.84,2.29-4.56,1.36-6.82l17.98-17.98,2.99.39,7.92-7.92-5.99-.8-.8-5.99-7.92,7.94.39,2.99-17.96,17.98Z"></path><path d="M43.25,32.68c.12.67.18,1.36.18,2.06,0,6.56-5.34,11.9-11.9,11.9s-11.9-5.34-11.9-11.9,5.34-11.9,11.9-11.9c.58,0,1.14.04,1.7.12l5.57-5.57c-2.24-.94-4.7-1.46-7.27-1.46-10.38,0-18.82,8.44-18.82,18.82s8.44,18.82,18.82,18.82,18.82-8.44,18.82-18.82c0-2.69-.57-5.24-1.59-7.56l-5.5,5.5Z"></path></g></g></svg>