<svg xmlns="http://www.w3.org/2000/svg" id="Capa_2" data-name="Capa 2" viewBox="0 0 61.61 61.61"><g id="Capa_1-2" data-name="Capa 1"><g id="Layer_2" data-name="Layer 2"><rect x="22" y="35.21" width="17.6" height="26.41" rx="6.5" ry="6.5"></rect><rect x="0" y="41.81" width="17.6" height="19.8" rx="6.5" ry="6.5"></rect><rect x="44.01" y="24.2" width="17.6" height="37.41" rx="6.5" ry="6.5"></rect><path d="M8.8,33.01c.18,0,.37-.02.54-.07,7.88-2.01,15.45-5.04,22.54-9.02,7.71-4.36,14.76-9.8,20.93-16.16v5.45c0,1.22.99,2.2,2.2,2.2s2.2-.99,2.2-2.2V2.2c0-1.22-.99-2.2-2.2-2.2h-11c-1.22,0-2.2.99-2.2,2.2s.99,2.2,2.2,2.2h5.89c-5.92,6.18-12.72,11.46-20.17,15.68-6.75,3.79-13.97,6.67-21.47,8.58-1.18.29-1.91,1.47-1.62,2.66.24,1,1.14,1.7,2.17,1.68h0Z"></path></g></g></svg>