<svg xmlns="http://www.w3.org/2000/svg" id="Capa_2" data-name="Capa 2" viewBox="0 0 69.45 69.45"><g id="Capa_1-2" data-name="Capa 1"><path d="M67.76,30.63l-4.74-4.74c-1.12-1.12-2.05-3.35-2.05-4.94v-6.7c0-3.19-2.6-5.79-5.79-5.79h-6.7c-1.59,0-3.82-.92-4.94-2.05l-4.74-4.74c-2.25-2.25-5.93-2.25-8.18,0l-4.74,4.74c-1.13,1.12-3.35,2.04-4.94,2.04h-6.7c-3.18,0-5.79,2.6-5.79,5.79v6.7c0,1.59-.92,3.82-2.05,4.94l-4.74,4.74c-2.25,2.25-2.25,5.93,0,8.19l4.74,4.74c1.12,1.12,2.05,3.35,2.05,4.94v6.7c0,3.18,2.61,5.79,5.79,5.79h6.7c1.59,0,3.82.92,4.94,2.04l4.74,4.74c2.25,2.25,5.93,2.25,8.18,0l4.74-4.74c1.13-1.12,3.35-2.04,4.94-2.04h6.7c3.18,0,5.79-2.61,5.79-5.79v-6.7c0-1.59.92-3.82,2.05-4.94l4.74-4.74c2.25-2.25,2.25-5.94,0-8.19ZM30.13,47.75l-12.77-12.77,4.09-4.09,8.68,8.68,17.86-17.86,4.09,4.09-21.96,21.95Z"></path></g></svg>