<svg xmlns="http://www.w3.org/2000/svg" viewBox="0 0 800 560" role="img" aria-label="Vista previa de plataforma web corporativa B2B">
  <defs>
    <linearGradient id="b2bBg" x1="0" y1="0" x2="1" y2="1">
      <stop offset="0" stop-color="#0B132B"/>
      <stop offset="1" stop-color="#070B19"/>
    </linearGradient>
    <linearGradient id="b2bHero" x1="0" y1="0" x2="1" y2="1">
      <stop offset="0" stop-color="#13224A"/>
      <stop offset="1" stop-color="#0B132B"/>
    </linearGradient>
    <linearGradient id="b2bAccent" x1="0" y1="0" x2="1" y2="0">
      <stop offset="0" stop-color="#00F0FF"/>
      <stop offset="1" stop-color="#3B82F6"/>
    </linearGradient>
    <linearGradient id="b2bChart" x1="0" y1="0" x2="0" y2="1">
      <stop offset="0" stop-color="#00F0FF" stop-opacity="0.35"/>
      <stop offset="1" stop-color="#00F0FF" stop-opacity="0"/>
    </linearGradient>
    <radialGradient id="b2bGlow" cx="0.8" cy="0.1" r="0.9">
      <stop offset="0" stop-color="#00F0FF" stop-opacity="0.16"/>
      <stop offset="1" stop-color="#00F0FF" stop-opacity="0"/>
    </radialGradient>
  </defs>

  <rect width="800" height="560" rx="20" fill="url(#b2bBg)"/>
  <rect width="800" height="560" rx="20" fill="url(#b2bGlow)"/>

  <!-- Browser chrome -->
  <rect x="36" y="30" width="728" height="46" rx="14" fill="#101B3D"/>
  <circle cx="66" cy="53" r="6" fill="#EF4444"/>
  <circle cx="88" cy="53" r="6" fill="#F59E0B"/>
  <circle cx="110" cy="53" r="6" fill="#10B981"/>
  <rect x="150" y="41" width="380" height="24" rx="12" fill="#0B132B" stroke="#1C2541"/>
  <text x="170" y="58" font-family="monospace" font-size="13" fill="#64748B">corporativo-b2b.com</text>

  <!-- Nav bar -->
  <rect x="36" y="92" width="728" height="52" rx="12" fill="#0E1935"/>
  <rect x="60" y="108" width="110" height="20" rx="6" fill="url(#b2bAccent)" opacity="0.9"/>
  <rect x="470" y="112" width="52" height="12" rx="6" fill="#334765"/>
  <rect x="538" y="112" width="52" height="12" rx="6" fill="#334765"/>
  <rect x="606" y="112" width="52" height="12" rx="6" fill="#334765"/>
  <rect x="676" y="104" width="66" height="28" rx="14" fill="#00F0FF"/>

  <!-- Hero split -->
  <rect x="36" y="160" width="425" height="196" rx="16" fill="url(#b2bHero)" stroke="#1C2541"/>
  <rect x="64" y="192" width="230" height="22" rx="8" fill="#E2E8F0"/>
  <rect x="64" y="224" width="300" height="22" rx="8" fill="#E2E8F0" opacity="0.85"/>
  <rect x="64" y="262" width="260" height="10" rx="5" fill="#475569"/>
  <rect x="64" y="280" width="220" height="10" rx="5" fill="#475569"/>
  <rect x="64" y="312" width="120" height="30" rx="15" fill="url(#b2bAccent)"/>
  <rect x="196" y="312" width="120" height="30" rx="15" fill="none" stroke="#334765" stroke-width="1.5"/>

  <!-- KPI cards -->
  <g>
    <rect x="477" y="160" width="138" height="92" rx="14" fill="#111E42" stroke="#1C2541"/>
    <rect x="493" y="178" width="46" height="9" rx="4.5" fill="#64748B"/>
    <text x="493" y="222" font-family="Arial, sans-serif" font-weight="700" font-size="26" fill="#00F0FF">+128%</text>
    <rect x="493" y="232" width="70" height="7" rx="3.5" fill="#334765"/>
  </g>
  <g>
    <rect x="627" y="160" width="138" height="92" rx="14" fill="#111E42" stroke="#1C2541"/>
    <rect x="643" y="178" width="46" height="9" rx="4.5" fill="#64748B"/>
    <text x="643" y="222" font-family="Arial, sans-serif" font-weight="700" font-size="26" fill="#8B5CF6">4.9s→0.9s</text>
    <rect x="643" y="232" width="70" height="7" rx="3.5" fill="#334765"/>
  </g>

  <!-- Line chart card -->
  <rect x="477" y="264" width="288" height="92" rx="14" fill="#111E42" stroke="#1C2541"/>
  <rect x="493" y="280" width="80" height="9" rx="4.5" fill="#64748B"/>
  <path d="M493 336 L525 330 L557 333 L589 320 L621 324 L653 308 L685 312 L717 296 L749 288" fill="none" stroke="#00F0FF" stroke-width="2.5" stroke-linecap="round"/>
  <path d="M493 336 L525 330 L557 333 L589 320 L621 324 L653 308 L685 312 L717 296 L749 288 L749 348 L493 348 Z" fill="url(#b2bChart)"/>

  <!-- Content sections -->
  <g>
    <rect x="36" y="372" width="232" height="120" rx="14" fill="#0E1935" stroke="#1C2541"/>
    <rect x="58" y="394" width="36" height="36" rx="10" fill="#0B2B3A" stroke="#00F0FF" stroke-opacity="0.5"/>
    <path d="M69 412 l5 5 9 -10" fill="none" stroke="#00F0FF" stroke-width="2.5" stroke-linecap="round" stroke-linejoin="round"/>
    <rect x="58" y="444" width="130" height="10" rx="5" fill="#CBD5E1"/>
    <rect x="58" y="462" width="180" height="8" rx="4" fill="#475569"/>
  </g>
  <g>
    <rect x="284" y="372" width="232" height="120" rx="14" fill="#0E1935" stroke="#1C2541"/>
    <rect x="306" y="394" width="36" height="36" rx="10" fill="#161A45" stroke="#8B5CF6" stroke-opacity="0.55"/>
    <circle cx="324" cy="412" r="8" fill="none" stroke="#8B5CF6" stroke-width="2.5"/>
    <rect x="306" y="444" width="130" height="10" rx="5" fill="#CBD5E1"/>
    <rect x="306" y="462" width="180" height="8" rx="4" fill="#475569"/>
  </g>
  <g>
    <rect x="532" y="372" width="232" height="120" rx="14" fill="#0E1935" stroke="#1C2541"/>
    <rect x="554" y="394" width="36" height="36" rx="10" fill="#0B2B3A" stroke="#3B82F6" stroke-opacity="0.55"/>
    <rect x="564" y="404" width="16" height="16" rx="4" fill="none" stroke="#3B82F6" stroke-width="2.5"/>
    <rect x="554" y="444" width="130" height="10" rx="5" fill="#CBD5E1"/>
    <rect x="554" y="462" width="180" height="8" rx="4" fill="#475569"/>
  </g>

  <!-- Footer strip -->
  <rect x="36" y="508" width="728" height="22" rx="11" fill="#0E1935"/>
  <rect x="60" y="515" width="90" height="8" rx="4" fill="#334765"/>
  <rect x="640" y="515" width="100" height="8" rx="4" fill="#334765"/>
</svg>
